<?xml version="1.0" encoding="utf-8" ?>
<svg xmlns="http://www.w3.org/2000/svg" width="701" height="701">
    <path fill="#4034CC" transform="scale(0.685172 0.685172)"
          d="M591.062 464.544L607.194 464.619L608.145 464.904C611.658 465.877 617.097 465.219 620.814 465.218C632.071 465.216 643.409 464.882 654.658 465.163C656.536 465.21 658.404 465.963 660.291 466.21C672.854 467.853 685.436 470.107 697.559 473.853C714.833 479.189 731.479 486.753 746.6 496.672C751.23 499.709 755.772 502.925 760.169 506.293C763.123 508.555 767.587 513.084 771.023 514.193L771.549 514.672C777.88 520.64 783.506 527.534 788.75 534.462C810.979 563.825 824.854 600.431 825.695 637.441C826.783 685.317 811.074 732.729 777.627 767.652C768.976 776.684 760.058 785.057 749.877 792.357C732.552 804.779 711.586 814.102 690.969 819.437C673.327 824.003 656.257 824.289 638.21 824.34C625.767 824.376 613.324 824.417 600.881 824.454C573.808 824.535 546.738 824.67 519.665 824.522C497.613 824.402 475.5 823.942 453.454 824.385L456.858 823.004C464.927 819.53 472.656 814.08 479.824 809.022C499.072 795.437 516.026 778.451 528.305 758.215C535.051 747.097 540.185 735.196 544.992 723.144C551.789 723.79 559.038 723.405 565.889 723.421C578.969 723.451 592.049 723.456 605.128 723.463C615.943 723.468 626.758 723.491 637.572 723.492C643.566 723.493 649.864 723.897 655.798 723.171L656.75 723.05C675.073 720.851 692.239 712.136 705.309 699.189C720.323 684.316 728.973 663.893 729.034 642.797C729.094 621.728 720.663 600.967 705.843 586C692.518 572.542 673.952 563.082 655.017 561.093C646.664 560.216 637.843 560.737 629.435 560.716C616.63 560.683 603.824 560.566 591.019 560.48L591.062 464.544Z"/>
    <path fill="#7159BC" transform="scale(0.685172 0.685172)"
          d="M607.194 464.619C617.907 464.443 628.627 464.571 639.342 464.592C644.915 464.603 650.717 464.962 656.25 464.355C675.21 462.273 693.805 452.656 706.976 438.995C722.772 422.612 730.037 401.481 729.498 378.97C729.005 358.393 719.122 338.224 704.327 324.17C693.701 314.077 679.229 306.753 664.908 303.723C653.171 301.239 641.258 301.79 629.327 301.791C617.093 301.791 604.86 301.801 592.627 301.803C550.316 301.81 508.006 301.635 465.694 301.686C456.465 301.697 447.236 301.717 438.007 301.712C431.505 301.708 424.62 302.111 418.25 300.672L417.39 300.49C404.629 297.683 392.378 288.818 385.54 277.75C378.418 266.222 376.732 251.077 379.964 238.024C383.401 224.147 392.274 213.163 404.5 205.965C410.252 202.579 416.811 200.396 423.453 199.687C432.819 198.688 442.899 199.39 452.332 199.409C470.421 199.445 488.509 199.484 506.598 199.489C537.054 199.498 567.511 199.495 597.968 199.496C611.455 199.497 624.942 199.487 638.43 199.504C646.878 199.514 655.45 199.243 663.869 200.003C673.759 200.897 683.519 202.825 693.11 205.368C739.378 217.633 780.207 252.15 803.968 293.2C827.718 334.229 834.369 384.86 821.933 430.593C815.45 454.43 804.234 476.549 788.626 495.704C783.286 502.257 777.08 508.302 771.023 514.193C767.587 513.084 763.123 508.555 760.169 506.293C755.772 502.925 751.23 499.709 746.6 496.672C731.479 486.753 714.833 479.189 697.559 473.853C685.436 470.107 672.854 467.853 660.291 466.21C658.404 465.963 656.536 465.21 654.658 465.163C643.409 464.882 632.071 465.216 620.814 465.218C617.097 465.219 611.658 465.877 608.145 464.904L607.194 464.619Z"/>
    <defs>
        <linearGradient id="gradient_0" gradientUnits="userSpaceOnUse" x1="551.362" y1="616.81445" x2="225.02477"
                        y2="529.00916">
            <stop offset="0" stop-color="#6E57D6"/>
            <stop offset="1" stop-color="#AF68D4"/>
        </linearGradient>
    </defs>
    <path fill="url(#gradient_0)" transform="scale(0.685172 0.685172)"
          d="M480.708 783.067C478.3 785.691 475.004 788.008 472.177 790.195C463.161 797.172 453.043 803.12 442.751 807.996C403.173 826.751 355.61 830.052 314.17 815.229C272.39 800.283 237.734 769.736 218.708 729.638C213.158 717.94 208.817 705.294 206.642 692.5C203.753 675.505 204.847 657.851 204.741 640.67C204.664 628.104 203.819 614.95 205.138 602.464C205.508 598.959 206.411 595.433 207.616 592.125C212.045 579.966 221.312 569.334 233.144 563.948C245.791 558.19 260.567 558.437 273.445 563.372C289.808 569.641 301.955 585.616 304.641 602.841C305.988 611.478 305.331 620.8 305.333 629.522C305.337 641.159 305.329 652.796 305.33 664.433C305.331 674.593 304.682 684.2 309.113 693.663C313.749 703.563 322.975 711.736 333.272 715.36C339.523 717.56 345.609 717.61 352.164 717.719C358.54 717.825 364.92 717.836 371.297 717.845C379.487 717.857 388.302 718.383 396.426 717.289C400.665 716.718 404.863 715.362 408.708 713.497C419.333 708.343 427.435 698.191 430.53 686.847C432.823 678.441 431.998 668.931 432.003 660.26C432.009 649.357 432.012 638.453 432.014 627.549C432.024 578.203 432.02 528.857 432.014 479.511C432.012 461.725 432.008 443.939 432.013 426.153C432.015 417.397 432.018 408.64 432.03 399.883C432.042 390.971 431.501 381.745 434.494 373.193C439.095 360.04 448.547 348.662 461.168 342.577C472.91 336.917 488.015 336.369 500.25 340.764C513.267 345.44 523.85 355.643 529.536 368.179C531.706 372.966 533.045 378.588 533.375 383.834C533.764 390.006 533.503 396.327 533.501 402.515C533.498 413.635 533.493 424.756 533.486 435.876C533.464 470.893 533.426 505.91 533.325 540.926C533.238 571.137 533.469 601.349 533.487 631.56C533.495 645.837 534.234 660.578 533.335 674.787C532.51 687.825 530.804 701.515 526.246 713.843C519.624 739.379 501.675 767.152 480.708 783.067Z"/>
    <path fill="#7159BC" transform="scale(0.685172 0.685172)"
          d="M491.43 771.714L487.603 774.353L484.462 776.571C483.522 777.122 482.754 777.526 482.089 778.421L481.616 779.093L480.993 778.978C480.936 778.651 480.79 778.328 480.822 777.997C480.918 777.002 492.751 766.061 494.213 763.931L494.503 763.503C496.069 761.344 497.446 758.763 499.228 756.807L499.731 756.269C499.913 754.356 500.261 753.773 501.173 752.173C501.844 750.996 503.028 749.712 503.546 748.546C503.954 747.628 504.039 746.304 504.327 745.312C504.406 746.54 504.456 747.575 504.853 748.751C505.711 748.064 505.432 748.444 505.907 747.387C506.037 747.097 506.401 746.122 506.655 745.847C506.775 745.716 507.531 745.475 507.583 745.373C507.617 745.309 507.562 744.158 507.594 744.023C507.942 742.55 509.91 740.559 510.531 738.939C511.399 736.675 513.054 734.922 513.891 732.689L514.183 731.863L515.216 731.763C515.031 730.572 514.984 731.132 515.286 730.079L516.672 730.805L518.259 730.243C518.08 731.193 518.049 731.517 518.25 732.5L519 730.75L519.698 729.055L520.255 727.5C520.679 726.911 521.02 726.544 521.375 725.875C521.151 724.243 522.005 724.557 522.375 723.375C522.57 722.752 522.339 721.59 522.242 720.925L522.107 720.022L522.75 719.944L523.255 720C524.044 719.152 524.369 718.171 524.378 717L524.255 716.25L524.875 715.753L524.755 715.25L526.246 713.843C519.624 739.379 501.675 767.152 480.708 783.067C480.974 781.87 481.786 780.548 482.875 779.875C486.04 777.918 488.788 774.423 491.43 771.714Z"/>
</svg>
