<?xml version="1.0" encoding="utf-8" ?>
<svg xmlns="http://www.w3.org/2000/svg" width="3484" height="1178">
    <path fill="#544867" transform="scale(4.99244 4.99244)"
          d="M498.064 64.2861C503.129 64.2747 509.473 64.0509 513.901 66.9176C517.063 68.9648 518.827 72.1793 519.59 75.8156C520.179 78.6211 519.965 81.6253 519.952 84.4817C519.923 90.8583 519.526 97.2383 519.504 103.588C519.441 121.808 520.263 140.266 519.555 158.461C519.534 159.014 519.266 159.545 518.967 160.001C521.201 159.812 525.489 159.281 527.35 160.584C528.256 161.218 528.978 162.199 529.152 163.301C529.627 166.308 529.632 172.066 527.812 174.501C526.533 175.46 525.286 175.396 523.756 175.425C516.885 175.437 508.854 175.908 502.372 173.371C498.133 171.713 495.685 168.843 494.266 164.552C492.795 160.103 493.114 153.899 493.099 149.236C493.071 140.774 493.309 132.323 493.317 123.864C493.328 111.494 492.998 99.0742 493.249 86.711C493.345 82.0073 493.53 77.3332 493.535 72.621C493.538 69.9826 493.854 67.0668 492.775 64.5968L498.064 64.2861Z"/>
    <path fill="#544867" transform="scale(4.99244 4.99244)"
          d="M412.574 64.2861L448.562 64.129L449.138 65.1387C449.172 68.1233 449.199 71.1074 449.327 74.0897C449.424 76.3466 450.07 80.6763 448.587 82.5072L432.311 82.5882C432.55 82.947 432.764 83.332 432.864 83.7548C433.365 85.8623 432.978 88.647 432.926 90.8289C432.843 94.347 432.906 97.8815 432.907 101.401C432.91 117.938 432.931 134.474 432.852 151.011C432.836 154.485 432.821 157.96 432.788 161.435C432.778 162.507 433.001 164.225 432.748 165.234C432.655 165.607 432.133 166.244 431.917 166.599C432.646 167.465 432.859 168.281 432.974 169.382C433.16 171.174 432.964 173.772 431.79 175.218C423.717 175.294 414.937 175.921 407.15 173.501C407.069 172.095 405.719 170.508 405.398 168.966C404.277 163.565 404.864 157.287 404.866 151.779C404.869 139.464 405.086 127.178 405.216 114.874C405.361 101.252 404.623 87.5544 405.319 73.9649C405.42 71.9828 405.347 69.0235 406.502 67.358C407.92 65.314 410.277 64.6995 412.574 64.2861Z"/>
    <path fill="#544867" transform="scale(4.99244 4.99244)"
          d="M450.532 64.2859C453.374 63.8632 456.515 64.0252 459.397 64.0581C464.473 64.1161 470.5 63.6821 475.034 66.3244C476.607 67.2409 477.788 69.6827 478.216 71.4158C478.607 72.999 478.552 74.8681 478.619 76.4979C478.781 80.4146 478.677 84.2619 478.67 88.1773C478.656 95.7343 479.328 103.728 478.164 111.198C477.736 113.947 476.78 116.77 475.317 119.143C473.056 122.81 468.158 123.825 464.229 124.729L464.609 124.728C469.078 124.72 474.118 124.199 477.562 127.673C478.812 128.934 479.64 130.415 480.058 132.147C480.782 135.143 480.532 138.596 480.555 141.676C480.594 147.048 480.618 152.425 480.602 157.797C480.589 162.388 480.543 168.096 477.012 171.545C471.822 176.616 461.591 175.143 454.91 175.117L433.618 175.273C433.888 174.881 434.065 174.399 434.142 173.931C434.621 171.041 434.984 158.874 433.401 156.77C437.745 157.063 442.085 157.242 446.436 156.996C448.601 156.873 450.523 156.909 452.382 155.634C452.572 155.339 452.778 154.988 452.842 154.639C453.254 152.4 452.887 149.539 452.897 147.209C452.92 141.976 452.983 136.746 452.969 131.513C452.964 129.482 453.381 126.275 452.223 124.536C450.38 124.049 448.079 124.262 446.178 124.259C442.159 124.25 438.125 124.237 434.109 124.363L434.365 123.771C434.756 122.699 434.704 121.192 434.764 120.051C434.903 117.414 434.734 114.77 434.627 112.133C434.544 110.072 434.638 108.069 433.784 106.149L450.01 106.12C450.172 105.91 450.343 105.668 450.431 105.415C451.493 102.334 451.686 66.9245 450.532 64.2859Z"/>
    <path fill="#544867" transform="scale(4.99244 4.99244)"
          d="M284.581 63.6018C288.66 63.2219 293.107 63.3793 297.195 63.6281C299.567 63.7723 302.112 63.8575 304.363 64.6791C305.988 65.272 307.569 66.3932 308.272 68.0342C308.748 69.1444 309.064 70.8842 309.143 72.0791C309.45 76.7352 309.214 81.5013 309.248 86.1673C309.321 96.3252 309.348 106.482 309.337 116.64C309.326 127.306 309.165 137.968 309.119 148.631C309.098 153.432 309.468 158.225 309.229 163.026C309.116 165.294 308.782 168.178 307.881 170.275C307.085 172.126 305.674 173.439 303.802 174.158C300.487 175.431 295.345 174.851 291.76 174.855C282.851 174.863 273.528 175.271 264.713 174.019C261.54 173.568 258.65 172.635 255.725 171.369C251.332 167.758 249.151 165.22 248.327 159.411C247.676 154.829 247.792 150.051 247.846 145.429C247.87 143.382 247.826 140.633 249.156 138.958C250.103 137.765 251.387 137.576 252.805 137.451C256.631 137.114 272.107 136.617 274.788 139.006C275.857 139.958 276.16 144.698 276.229 146.186C276.343 148.629 276.667 154.612 275.108 156.33L280.599 155.963L280.884 155.589C281.702 154.255 281.206 131.194 281.22 127.481C281.276 111.972 281.407 96.4645 281.386 80.9463C281.381 77.5504 281.415 74.1553 281.455 70.7597C281.481 68.5226 281.67 66.2081 281.182 64.0111L284.581 63.6018Z"/>
    <path fill="#544867" transform="scale(4.99244 4.99244)"
          d="M554.602 97.367C560.457 97.1228 566.416 97.3389 572.279 97.3803C577.156 97.4147 582.84 97.0612 587.619 98.0563C590.53 98.6625 593.388 99.922 595.668 101.838C600.202 105.647 601.187 111.155 601.673 116.764C602.39 125.046 602.369 133.24 602.264 141.537C602.173 148.691 602.373 156.395 600.25 163.296C599.495 165.752 598.062 168.176 596.403 170.131C592.702 174.493 586.395 174.792 581.106 175.224C576.566 175.561 571.882 175.359 567.324 175.36C560.54 175.361 553.082 175.872 546.495 173.98C544.371 173.37 542.685 172.364 541.004 170.963C536.34 167.074 535.219 161.531 534.713 155.79C534.043 148.2 534.149 140.534 534.16 132.921C534.169 126.612 533.927 119.888 535.06 113.67C535.767 109.787 536.878 105.813 539.482 102.744C543.307 98.2356 549.126 97.8537 554.602 97.367ZM560.661 112.714C560.909 113.063 561.166 113.473 561.209 113.908C561.428 116.153 561.245 118.629 561.238 120.897C561.225 125.512 561.192 130.128 561.2 134.744C561.208 139.899 561.227 145.054 561.232 150.21C561.235 152.667 561.501 155.497 561.104 157.902C561.005 158.506 560.799 159.103 560.543 159.657L574.663 159.778C574.893 159.485 575.136 159.133 575.18 158.754C575.808 153.298 575.279 147.173 575.321 141.65C575.367 135.671 575.45 129.707 575.411 123.727C575.392 120.783 575.562 117.664 575.203 114.748C575.137 114.205 575.007 113.698 574.793 113.195C571.397 111.868 564.273 112.03 560.661 112.714Z"/>
    <path fill="#544867" transform="scale(4.99244 4.99244)"
          d="M340.774 97.0255L342.522 96.878C347.267 96.5646 352.142 96.775 356.9 96.7755C363.909 96.7761 371.555 96.1932 378.381 98.0548C380.854 98.7294 382.8 99.7909 384.719 101.481C389.688 105.855 390.538 112.574 390.947 118.813C391.456 126.576 391.313 134.338 391.209 142.109C391.133 147.737 391.327 153.696 390.174 159.223C389.411 162.878 388 166.73 385.493 169.558C382.005 173.492 377.101 174.273 372.09 174.571C365.8 174.952 359.486 174.907 353.186 174.884C347.417 174.863 341.146 175.101 335.552 173.544C333.848 173.07 332.171 172.147 330.739 171.115C326.595 168.126 324.593 162.942 323.785 158.084C323.227 154.731 323.36 151.135 323.239 147.737C322.978 140.399 323.055 133.316 323.249 125.983C323.384 120.898 323.372 115.51 324.488 110.53C325.068 107.938 326.261 105.456 327.811 103.306C331.389 98.3424 335.112 97.9592 340.774 97.0255ZM349.878 112.032C351.05 115.384 350.129 120.862 350.1 124.473C350.027 133.571 349.931 142.673 349.861 151.767C349.849 153.345 350.7 156.89 350.053 158.21L349.681 158.815C351.927 159.241 361.354 160.441 363.159 159.302L363.351 159.17C363.681 158.824 363.966 158.428 364.071 157.952C365.164 153.017 364.516 146.548 364.517 141.498C364.517 133.254 364.661 124.981 364.46 116.743C364.432 115.575 364.495 113.505 363.697 112.617C359.389 111.504 354.292 111.699 349.878 112.032Z"/>
    <path fill="#3936C6" transform="scale(4.99244 4.99244)"
          d="M142.245 101.698L159.365 101.825C160.677 101.854 162.681 101.687 163.902 102.092C164.436 102.27 164.715 102.788 165.313 102.896C167.9 103.36 170.58 103.605 173.15 104.188C179.435 105.615 186.302 108.821 191.686 112.371C193.389 113.494 198.542 117.726 200.376 117.767L200.981 118.246C202.692 119.871 204.206 122.012 205.65 123.875C211.291 131.153 215.423 139.79 217.089 148.892C217.692 152.187 217.806 155.751 217.98 159.095C218.752 173.944 212.53 188.923 202.676 199.799C194.409 208.924 182.613 215.15 170.595 217.515C163.642 218.883 155.732 218.145 148.65 218.146C138.085 218.147 127.52 218.144 116.955 218.162C110.621 218.173 104.237 218.041 97.9111 218.358C111.611 211.65 121.989 200.045 127.142 185.704L154.762 185.816C163.511 185.795 172.293 184.805 178.798 178.195C183.655 173.259 186.863 166.873 186.828 159.831C186.789 151.836 184.275 145.914 178.579 140.282C175.294 137.033 170.128 134.26 165.58 133.336C162.699 132.751 159.502 132.931 156.571 132.934C151.83 132.938 147.089 132.96 142.348 132.985L142.245 101.698Z"/>
    <path fill="#6B5BB6" transform="scale(4.99244 4.99244)"
          d="M159.365 101.825C167.628 101.457 174.089 99.5654 179.829 93.2812C184.566 88.0952 187.375 81.3012 187.04 74.2101C186.719 67.4331 184.333 61.1073 179.212 56.44C175.494 53.0504 171.224 50.8966 166.311 49.8018C158.674 48.1002 150.162 48.7726 142.365 48.7725C128.69 48.7725 115.025 49.0235 101.348 48.9917C96.5166 48.9804 90.0625 49.6787 85.4182 48.2897C78.8317 46.3199 73.7245 40.6128 73.3544 33.6038C73.1304 29.3606 74.7698 24.5266 77.6493 21.3658C80.5097 18.2262 84.9124 15.953 89.1836 15.7467C100.082 15.2203 111.275 15.7192 122.194 15.7182C130.709 15.7175 139.224 15.7187 147.738 15.7255C156.429 15.7324 165.621 15.366 174.126 17.4838C183.212 19.7461 191.99 24.6859 198.852 31.0441C210.562 41.8938 218.007 56.4834 218.608 72.5707C219.104 85.8304 215.318 101.795 206.045 111.769L200.376 117.767C198.542 117.726 193.389 113.494 191.686 112.371C186.302 108.821 179.435 105.615 173.15 104.188C170.58 103.605 167.9 103.36 165.313 102.896C164.715 102.788 164.436 102.27 163.902 102.092C162.681 101.687 160.677 101.854 159.365 101.825Z"/>
    <path fill="#544867" transform="scale(4.99244 4.99244)"
          d="M655.495 97.7081C662.493 97.5278 670.984 96.8347 676.725 101.443C678.604 102.95 680.454 105.872 680.705 108.277C681.162 112.641 680.807 117.319 680.781 121.725C680.736 129.428 680.759 137.131 680.78 144.834C680.815 157.501 680.87 170.15 680.67 182.814C680.599 187.323 680.986 192.129 680.417 196.593C680.095 199.128 679.109 201.41 677.463 203.379C674.9 206.444 670.843 207.933 666.934 208.256C661.393 208.714 655.718 208.141 650.17 208.095C645.977 208.061 641.783 208.074 637.59 208.074C634.598 208.075 631.5 208.194 628.554 207.597C625.504 206.978 622.242 205.523 619.864 203.495C616.956 201.016 615.829 195.968 615.556 192.324C615.39 190.117 614.96 184.533 615.988 182.627C616.222 182.195 616.822 181.65 617.152 181.263C620.122 180.338 623.658 180.596 626.745 180.596C631.54 180.597 636.335 180.62 641.13 180.645C641.317 180.939 641.515 181.283 641.583 181.628C642.093 184.215 642.208 190.507 640.71 192.761C645.082 192.756 649.689 192.459 654.019 193.063L654.474 191.409C655.152 187.949 654.648 183.545 654.495 180.021C654.431 178.546 654.566 176.838 653.72 175.57C648.232 175.609 642.754 175.819 637.267 175.643C631.446 175.457 624.209 175.035 619.755 170.802C612.587 163.992 613.44 151.653 613.212 142.548C613.127 139.115 613.37 135.669 613.377 132.231C613.391 124.925 612.905 116.384 615.323 109.387C616.283 106.609 617.96 104.141 619.979 102.035C625.165 96.6248 634.827 97.8556 641.687 97.8543C646.291 97.8534 650.892 97.7987 655.495 97.7081ZM641.861 113.055L640.401 113.249C640.327 113.35 640.066 113.634 640.044 113.737C639.952 114.171 640.202 115.178 640.234 115.659C640.323 116.98 640.292 118.322 640.297 119.645C640.33 129.124 640.312 138.605 640.303 148.084C640.299 151.66 640.907 156.601 639.726 159.968L651.904 160.196L654.321 160.17C655.131 158.792 654.73 128.709 654.724 125.134C654.719 121.963 655.25 117.424 654.55 114.398C654.427 113.866 654.174 113.393 653.889 112.932L641.861 113.055Z"/>
    <defs>
        <linearGradient id="gradient_0" gradientUnits="userSpaceOnUse" x1="128.55118" y1="150.45793" x2="23.657076"
                        y2="123.11502">
            <stop offset="0" stop-color="#685AD0"/>
            <stop offset="1" stop-color="#A66CCC"/>
        </linearGradient>
    </defs>
    <path fill="url(#gradient_0)" transform="scale(4.99244 4.99244)"
          d="M106.215 60.8047C108.551 60.512 111.546 61.2399 113.68 62.1848C117.95 64.0753 120.876 67.4967 122.536 71.81C122.921 72.8099 123.263 73.8196 123.337 74.8961C123.81 81.7823 123.446 88.8231 123.45 95.7249C123.456 107.738 123.563 119.74 123.511 131.755C123.48 138.913 123.415 146.078 123.494 153.236C123.559 159.094 123.833 165.118 123.306 170.956C122.749 177.119 121.099 184.17 118.564 189.808C113.378 201.339 101.653 210.159 90.1007 214.593C77.684 219.358 62.079 219.671 49.7946 214.168C35.5366 207.78 25.15 197.295 19.5528 182.59L17.6908 175.474C16.8713 170.348 17.1279 165.141 17.0284 159.98C16.9356 155.173 16.3283 150.081 17.2982 145.335C17.7376 143.185 18.9686 140.8 20.2608 139.031C22.7284 135.652 26.2827 133.707 30.3825 133.11C34.7011 132.481 39.0715 133.352 42.5913 135.986C49.3816 141.067 49.3501 147.592 49.3778 155.299C49.3991 161.215 48.9215 167.714 49.8266 173.536C50.3131 176.665 52.4079 179.144 54.9185 180.925C56.2123 181.842 57.5751 182.742 59.1035 183.212C61.9289 184.08 65.3885 184.02 68.3226 184.072C72.0259 184.138 76.068 184.297 79.73 183.631C84.9484 182.682 88.7446 177.978 90.2229 173.139C91.0415 170.458 90.8591 167.432 90.8592 164.658C90.8594 160.553 90.8423 156.447 90.8348 152.342C90.803 134.802 90.9067 117.259 90.9075 99.7178C90.9077 95.1478 90.9506 90.5726 90.8805 86.0033C90.8229 82.2425 90.5938 78.363 91.0899 74.6226C91.4303 72.0565 92.7518 69.1417 94.2367 67.0522C97.0989 63.0244 101.571 61.5627 106.215 60.8047Z"/>
</svg>
